{
    "asset" : {
        "generator" : "Khronos glTF Blender I/O v1.7.33",
        "version" : "2.0"
    },
    "scene" : 0,
    "scenes" : [
        {
            "name" : "Scene",
            "nodes" : [
                1
            ]
        }
    ],
    "nodes" : [
        {
            "mesh" : 0,
            "name" : "Banana_Gun_with_Scope.1"
        },
        {
            "children" : [
                0
            ],
            "name" : "RootNode.0",
            "scale" : [
                0.8321719169616699,
                0.8321719169616699,
                0.8321719169616699
            ]
        }
    ],
    "materials" : [
        {
            "doubleSided" : true,
            "name" : "Material_0",
            "pbrMetallicRoughness" : {}
        }
    ],
    "meshes" : [
        {
            "name" : "Mesh_0",
            "primitives" : [
                {
                    "attributes" : {
                        "POSITION" : 0,
                        "NORMAL" : 1,
                        "TEXCOORD_0" : 2
                    },
                    "indices" : 3,
                    "material" : 0
                }
            ]
        }
    ],
    "accessors" : [
        {
            "bufferView" : 0,
            "componentType" : 5126,
            "count" : 4304,
            "max" : [
                0.8508096933364868,
                4.480675220489502,
                3.2388386726379395
            ],
            "min" : [
                -1.5122349262237549,
                0.016432523727416992,
                -1.9695580005645752
            ],
            "type" : "VEC3"
        },
        {
            "bufferView" : 1,
            "componentType" : 5126,
            "count" : 4304,
            "type" : "VEC3"
        },
        {
            "bufferView" : 2,
            "componentType" : 5126,
            "count" : 4304,
            "type" : "VEC2"
        },
        {
            "bufferView" : 3,
            "componentType" : 5123,
            "count" : 18687,
            "type" : "SCALAR"
        }
    ],
    "bufferViews" : [
        {
            "buffer" : 0,
            "byteLength" : 51648,
            "byteOffset" : 0
        },
        {
            "buffer" : 0,
            "byteLength" : 51648,
            "byteOffset" : 51648
        },
        {
            "buffer" : 0,
            "byteLength" : 34432,
            "byteOffset" : 103296
        },
        {
            "buffer" : 0,
            "byteLength" : 37374,
            "byteOffset" : 137728
        }
    ],
    "buffers" : [
        {
            "byteLength" : 175104,
            "uri" : "untitled.bin"
        }
    ]
}
